<svg xmlns="http://www.w3.org/2000/svg" viewBox="0 0 100 100" fill="none">
  <defs>
    <!-- Vibrant rainbow gradient for outer circle -->
    <linearGradient id="rainbowGradient" x1="0%" y1="0%" x2="100%" y2="100%">
      <stop offset="0%" style="stop-color:#ff6b6b;stop-opacity:1" />
      <stop offset="20%" style="stop-color:#f59e0b;stop-opacity:1" />
      <stop offset="40%" style="stop-color:#fbbf24;stop-opacity:1" />
      <stop offset="60%" style="stop-color:#34d399;stop-opacity:1" />
      <stop offset="80%" style="stop-color:#60a5fa;stop-opacity:1" />
      <stop offset="100%" style="stop-color:#a78bfa;stop-opacity:1" />
    </linearGradient>

    <!-- Shimmer gradient for inner circle -->
    <linearGradient id="shimmer" x1="0%" y1="0%" x2="100%" y2="100%">
      <stop offset="0%" style="stop-color:#ec4899;stop-opacity:1" />
      <stop offset="33%" style="stop-color:#8b5cf6;stop-opacity:1" />
      <stop offset="66%" style="stop-color:#3b82f6;stop-opacity:1" />
      <stop offset="100%" style="stop-color:#06b6d4;stop-opacity:1" />
    </linearGradient>

    <!-- Gradient for the R letter - brighter white -->
    <linearGradient id="letterGradient" x1="0%" y1="0%" x2="0%" y2="100%">
      <stop offset="0%" style="stop-color:#ffffff;stop-opacity:1" />
      <stop offset="100%" style="stop-color:#e0f2fe;stop-opacity:1" />
    </linearGradient>

    <!-- Shadow for depth -->
    <filter id="letterShadow" x="-50%" y="-50%" width="200%" height="200%">
      <feDropShadow dx="0" dy="2" stdDeviation="2" flood-color="#000000" flood-opacity="0.3" />
    </filter>
  </defs>

  <!-- Outer circle with rainbow gradient -->
  <circle cx="50" cy="50" r="48" fill="url(#rainbowGradient)" />

  <!-- Inner circle with shimmer gradient -->
  <circle cx="50" cy="50" r="42" fill="url(#shimmer)" />

  <!-- Large, clear letter "R" with shadow for depth -->
  <g fill="url(#letterGradient)" filter="url(#letterShadow)">
    <!-- Main vertical stem of R - thicker and clearer -->
    <rect x="30" y="25" width="10" height="50" rx="3" />

    <!-- Top rounded part of R - larger and more defined -->
    <path
      d="M 40 25 
             L 58 25 
             C 67 25 72 30 72 38 
             C 72 46 67 51 58 51 
             L 40 51 
             Z"
      stroke="url(#letterGradient)"
      stroke-width="1"
      stroke-opacity="0.3" />

    <!-- Inner curve detail for the bowl of R -->
    <ellipse cx="56" cy="38" rx="8" ry="10" fill="url(#shimmer)" opacity="0.6" />

    <!-- Diagonal leg of R - bold and clear -->
    <path
      d="M 48 48 
             L 64 75 
             L 56 75 
             C 54 75 52 74 51 72 
             L 42 53 
             C 41 51 42 48 44 48 
             Z" />

    <!-- Highlight on top of R for modern look -->
    <rect x="32" y="27" width="6" height="8" rx="2" fill="white" opacity="0.4" />
  </g>

  <!-- Decorative elements around R -->
  <g fill="white" opacity="0.6">
    <!-- Top accent dots -->
    <circle cx="50" cy="15" r="1.5" />
    <circle cx="45" cy="18" r="1" />
    <circle cx="55" cy="18" r="1" />

    <!-- Bottom accent dots -->
    <circle cx="50" cy="85" r="1.5" />
    <circle cx="45" cy="82" r="1" />
    <circle cx="55" cy="82" r="1" />
  </g>

  <!-- Corner sparkles for premium feel -->
  <g fill="white" opacity="0.5">
    <circle cx="20" cy="20" r="1.2" />
    <circle cx="80" cy="20" r="1.2" />
    <circle cx="20" cy="80" r="1.2" />
    <circle cx="80" cy="80" r="1.2" />
  </g>
</svg>