<svg xmlns="http://www.w3.org/2000/svg" viewBox="0 0 100 100" fill="none">
  <defs>
    <!-- Pure black background -->
    <linearGradient id="blackBg" x1="0%" y1="0%" x2="100%" y2="100%">
      <stop offset="0%" style="stop-color:#000000;stop-opacity:1" />
      <stop offset="100%" style="stop-color:#0a0a0a;stop-opacity:1" />
    </linearGradient>

    <!-- Neon blue accent gradient -->
    <linearGradient id="blueAccent" x1="0%" y1="0%" x2="100%" y2="100%">
      <stop offset="0%" style="stop-color:#60a5fa;stop-opacity:1" />
      <stop offset="100%" style="stop-color:#3b82f6;stop-opacity:1" />
    </linearGradient>

    <!-- Cyan glow gradient -->
    <linearGradient id="cyanGlow" x1="0%" y1="0%" x2="100%" y2="100%">
      <stop offset="0%" style="stop-color:#22d3ee;stop-opacity:1" />
      <stop offset="100%" style="stop-color:#06b6d4;stop-opacity:1" />
    </linearGradient>

    <!-- Soft glow effect -->
    <filter id="softGlow">
      <feGaussianBlur stdDeviation="1.5" result="coloredBlur" />
      <feMerge>
        <feMergeNode in="coloredBlur" />
        <feMergeNode in="SourceGraphic" />
      </feMerge>
    </filter>

    <!-- Subtle inner shadow for depth -->
    <filter id="innerShadow">
      <feGaussianBlur in="SourceAlpha" stdDeviation="2" />
      <feOffset dx="0" dy="2" result="offsetblur" />
      <feFlood flood-color="#000000" flood-opacity="0.5" />
      <feComposite in2="offsetblur" operator="in" />
      <feMerge>
        <feMergeNode />
        <feMergeNode in="SourceGraphic" />
      </feMerge>
    </filter>
  </defs>

  <!-- Rounded square background - pure black -->
  <rect x="2" y="2" width="96" height="96" rx="22" fill="url(#blackBg)" />

  <!-- Dark frame with subtle gradient -->
  <rect x="2" y="2" width="96" height="96" rx="22" fill="none" stroke="#18181b" stroke-width="1" />

  <!-- Inner frame with blue glow -->
  <rect x="10" y="10" width="80" height="80" rx="16" fill="none" stroke="url(#blueAccent)"
    stroke-width="1.5" opacity="0.4" />

  <!-- API Letters - minimalist style -->
  <g filter="url(#softGlow)">
    <!-- Letter A -->
    <g>
      <!-- A frame -->
      <rect x="18" y="36" width="18" height="28" rx="6" fill="none" stroke="url(#blueAccent)"
        stroke-width="2" opacity="0.6" />
      <!-- A letter -->
      <path d="M 22 58 L 27 42 L 32 58" stroke="#ffffff" stroke-width="3" fill="none"
        stroke-linecap="round" stroke-linejoin="round" />
      <line x1="24" y1="52" x2="30" y2="52" stroke="#ffffff" stroke-width="2.5"
        stroke-linecap="round" />
      <!-- Blue glow accent on top -->
      <circle cx="27" cy="42" r="2" fill="url(#cyanGlow)" opacity="0.8" />
    </g>

    <!-- Letter P -->
    <g>
      <!-- P frame -->
      <rect x="41" y="36" width="18" height="28" rx="6" fill="none" stroke="url(#blueAccent)"
        stroke-width="2" opacity="0.6" />
      <!-- P letter -->
      <line x1="45" y1="42" x2="45" y2="58" stroke="#ffffff" stroke-width="3" stroke-linecap="round" />
      <path d="M 45 42 L 52 42 C 54 42 55 44 55 46.5 C 55 49 54 51 52 51 L 45 51"
        stroke="#ffffff" stroke-width="3" fill="none" stroke-linecap="round" stroke-linejoin="round" />
      <!-- Cyan accent dot -->
      <circle cx="52" cy="46.5" r="1.5" fill="url(#cyanGlow)" opacity="0.9" />
    </g>

    <!-- Letter I -->
    <g>
      <!-- I frame -->
      <rect x="64" y="36" width="18" height="28" rx="6" fill="none" stroke="url(#blueAccent)"
        stroke-width="2" opacity="0.6" />
      <!-- I letter -->
      <line x1="73" y1="42" x2="73" y2="58" stroke="#ffffff" stroke-width="3" stroke-linecap="round" />
      <line x1="69" y1="42" x2="77" y2="42" stroke="#ffffff" stroke-width="2.5"
        stroke-linecap="round" />
      <line x1="69" y1="58" x2="77" y2="58" stroke="#ffffff" stroke-width="2.5"
        stroke-linecap="round" />
      <!-- Blue accents on caps -->
      <circle cx="73" cy="42" r="1.5" fill="url(#cyanGlow)" opacity="0.8" />
      <circle cx="73" cy="58" r="1.5" fill="url(#cyanGlow)" opacity="0.8" />
    </g>
  </g>

  <!-- Minimal corner accents -->
  <g stroke="url(#cyanGlow)" stroke-width="1.5" fill="none" opacity="0.5" stroke-linecap="round">
    <path d="M 16 22 L 16 16 L 22 16" />
    <path d="M 84 22 L 84 16 L 78 16" />
    <path d="M 16 78 L 16 84 L 22 84" />
    <path d="M 84 78 L 84 84 L 78 84" />
  </g>

  <!-- Status indicator line at bottom -->
  <g opacity="0.7">
    <line x1="30" y1="75" x2="70" y2="75" stroke="url(#blueAccent)" stroke-width="2"
      stroke-linecap="round" />
    <circle cx="50" cy="75" r="2.5" fill="url(#cyanGlow)" filter="url(#softGlow)" />
  </g>

  <!-- Subtle tech dots -->
  <g fill="url(#cyanGlow)" opacity="0.4">
    <circle cx="50" cy="20" r="1" />
    <circle cx="20" cy="50" r="1" />
    <circle cx="80" cy="50" r="1" />
  </g>
</svg>