<svg xmlns="http://www.w3.org/2000/svg" viewBox="0 0 100 100" fill="none">
  <defs>
    <!-- Vibrant rainbow gradient for outer circle -->
    <linearGradient id="rainbowGradient" x1="0%" y1="0%" x2="100%" y2="100%">
      <stop offset="0%" style="stop-color:#ff6b6b;stop-opacity:1" />
      <stop offset="20%" style="stop-color:#f59e0b;stop-opacity:1" />
      <stop offset="40%" style="stop-color:#fbbf24;stop-opacity:1" />
      <stop offset="60%" style="stop-color:#34d399;stop-opacity:1" />
      <stop offset="80%" style="stop-color:#60a5fa;stop-opacity:1" />
      <stop offset="100%" style="stop-color:#a78bfa;stop-opacity:1" />
    </linearGradient>

    <!-- Shimmer gradient for inner circle -->
    <linearGradient id="shimmer" x1="0%" y1="0%" x2="100%" y2="100%">
      <stop offset="0%" style="stop-color:#ec4899;stop-opacity:1" />
      <stop offset="33%" style="stop-color:#8b5cf6;stop-opacity:1" />
      <stop offset="66%" style="stop-color:#3b82f6;stop-opacity:1" />
      <stop offset="100%" style="stop-color:#06b6d4;stop-opacity:1" />
    </linearGradient>

    <!-- Gradient for the letters -->
    <linearGradient id="letterGradient" x1="0%" y1="0%" x2="100%" y2="100%">
      <stop offset="0%" style="stop-color:#ffffff;stop-opacity:1" />
      <stop offset="50%" style="stop-color:#f0f9ff;stop-opacity:1" />
      <stop offset="100%" style="stop-color:#dbeafe;stop-opacity:1" />
    </linearGradient>
  </defs>

  <!-- Outer circle with rainbow gradient -->
  <circle cx="50" cy="50" r="48" fill="url(#rainbowGradient)" />

  <!-- Inner circle with shimmer gradient -->
  <circle cx="50" cy="50" r="42" fill="url(#shimmer)" />

  <!-- API Letters -->
  <g fill="url(#letterGradient)" opacity="0.98">
    <!-- Letter A -->
    <g transform="translate(20, 35)">
      <!-- Left leg of A -->
      <path d="M 2 30 L 8 5 L 12 5 L 4 30 Z" />
      <!-- Right leg of A -->
      <path d="M 12 5 L 18 30 L 14 30 L 8 5 Z" />
      <!-- Crossbar of A -->
      <rect x="5" y="18" width="10" height="3" rx="1" />
    </g>

    <!-- Letter P -->
    <g transform="translate(40, 35)">
      <!-- Vertical stem of P -->
      <rect x="2" y="5" width="5" height="25" rx="1.5" />
      <!-- Top curved part of P -->
      <path d="M 7 5 L 14 5 C 17 5 19 7 19 11 C 19 15 17 17 14 17 L 7 17 Z" />
      <!-- Small accent circle -->
      <circle cx="15" cy="11" r="1.8" fill="white" opacity="0.6" />
    </g>

    <!-- Letter I -->
    <g transform="translate(62, 35)">
      <!-- Vertical stem of I -->
      <rect x="5" y="5" width="5" height="25" rx="1.5" />
      <!-- Top cap -->
      <rect x="3" y="5" width="9" height="3" rx="1.5" />
      <!-- Bottom cap -->
      <rect x="3" y="27" width="9" height="3" rx="1.5" />
    </g>
  </g>

  <!-- Decorative tech dots at bottom -->
  <g fill="white" opacity="0.5">
    <circle cx="35" cy="75" r="1.2" />
    <circle cx="43" cy="77" r="0.8" />
    <circle cx="50" cy="78" r="1.5" />
    <circle cx="57" cy="77" r="0.8" />
    <circle cx="65" cy="75" r="1.2" />
  </g>

  <!-- Corner accents for tech feel -->
  <circle cx="25" cy="25" r="1" fill="white" opacity="0.4" />
  <circle cx="75" cy="25" r="1" fill="white" opacity="0.4" />
</svg>