<svg xmlns="http://www.w3.org/2000/svg" viewBox="0 0 100 100" fill="none">
  <defs>
    <linearGradient id="spaceGradient" x1="0%" y1="0%" x2="100%" y2="100%">
      <stop offset="0%" style="stop-color:#1e1b4b;stop-opacity:1" />
      <stop offset="50%" style="stop-color:#5b21b6;stop-opacity:1" />
      <stop offset="100%" style="stop-color:#7c3aed;stop-opacity:1" />
    </linearGradient>
    <radialGradient id="glowGradient" cx="50%" cy="50%">
      <stop offset="0%" style="stop-color:#a78bfa;stop-opacity:0.3" />
      <stop offset="100%" style="stop-color:#5b21b6;stop-opacity:0" />
    </radialGradient>
  </defs>

  <!-- Outer glow -->
  <circle cx="50" cy="50" r="48" fill="url(#glowGradient)" />

  <!-- Main circle background -->
  <circle cx="50" cy="50" r="45" fill="url(#spaceGradient)" />

  <!-- Stars in background -->
  <circle cx="25" cy="30" r="1" fill="white" opacity="0.8" />
  <circle cx="70" cy="25" r="1.2" fill="white" opacity="0.9" />
  <circle cx="75" cy="45" r="0.8" fill="white" opacity="0.7" />
  <circle cx="30" cy="70" r="1" fill="white" opacity="0.8" />
  <circle cx="68" cy="68" r="0.9" fill="white" opacity="0.75" />

  <!-- Cute cat -->
  <g fill="white" stroke="white">
    <!-- Cat body -->
    <ellipse cx="50" cy="55" rx="12" ry="14" fill="white" />

    <!-- Cat head -->
    <circle cx="50" cy="42" r="10" fill="white" />

    <!-- Left ear -->
    <path d="M 43,35 L 40,28 L 46,33 Z" fill="white" />

    <!-- Right ear -->
    <path d="M 57,35 L 60,28 L 54,33 Z" fill="white" />

    <!-- Inner left ear -->
    <path d="M 43,35 L 41,30 L 45,34 Z" fill="#e9d5ff" />

    <!-- Inner right ear -->
    <path d="M 57,35 L 59,30 L 55,34 Z" fill="#e9d5ff" />

    <!-- Left eye -->
    <ellipse cx="46" cy="41" rx="2" ry="3" fill="#1e1b4b" />
    <ellipse cx="46.5" cy="40.5" rx="0.8" ry="1" fill="white" />

    <!-- Right eye -->
    <ellipse cx="54" cy="41" rx="2" ry="3" fill="#1e1b4b" />
    <ellipse cx="54.5" cy="40.5" rx="0.8" ry="1" fill="white" />

    <!-- Nose -->
    <path d="M 50,44 L 48,46 L 50,47 L 52,46 Z" fill="#fca5a5" />

    <!-- Mouth -->
    <path d="M 50,47 Q 47,49 45,48" stroke="#1e1b4b" stroke-width="0.8" fill="none"
      stroke-linecap="round" />
    <path d="M 50,47 Q 53,49 55,48" stroke="#1e1b4b" stroke-width="0.8" fill="none"
      stroke-linecap="round" />

    <!-- Whiskers left -->
    <line x1="38" y1="43" x2="43" y2="42" stroke="white" stroke-width="0.5" opacity="0.8" />
    <line x1="38" y1="45" x2="43" y2="45" stroke="white" stroke-width="0.5" opacity="0.8" />

    <!-- Whiskers right -->
    <line x1="62" y1="43" x2="57" y2="42" stroke="white" stroke-width="0.5" opacity="0.8" />
    <line x1="62" y1="45" x2="57" y2="45" stroke="white" stroke-width="0.5" opacity="0.8" />

    <!-- Tail -->
    <path d="M 60,60 Q 65,58 68,62" stroke="white" stroke-width="3" fill="none"
      stroke-linecap="round" />

    <!-- Front paws -->
    <ellipse cx="45" cy="67" rx="2.5" ry="3" fill="white" />
    <ellipse cx="55" cy="67" rx="2.5" ry="3" fill="white" />
  </g>

  <!-- Outer border -->
  <circle cx="50" cy="50" r="45" fill="none" stroke="#a78bfa" stroke-width="1" opacity="0.5" />
</svg>