<svg xmlns="http://www.w3.org/2000/svg" viewBox="0 0 100 100" fill="none">
  <defs>
    <linearGradient id="githubGradient" x1="0%" y1="0%" x2="100%" y2="100%">
      <stop offset="0%" style="stop-color:#24292f;stop-opacity:1" />
      <stop offset="100%" style="stop-color:#1f2937;stop-opacity:1" />
    </linearGradient>
  </defs>

  <!-- Background circle -->
  <circle cx="50" cy="50" r="48" fill="url(#githubGradient)" />

  <!-- GitHub Octocat logo -->
  <path fill="white"
    d="M50,25 C36.2,25 25,36.2 25,50 c0,11.1,7.2,20.5,17.1,23.8 c1.2,0.2,1.7-0.5,1.7-1.2 c0-0.6,0-2.6,0-4.8 c-7,1.5-8.4-3-8.4-3 c-1.1-2.8-2.7-3.6-2.7-3.6 c-2.3-1.5,0.2-1.5,0.2-1.5 c2.5,0.2,3.8,2.5,3.8,2.5 c2.2,3.8,5.8,2.7,7.3,2.1 c0.2-1.6,0.9-2.7,1.6-3.3 c-5.6-0.6-11.4-2.8-11.4-12.5 c0-2.8,1-5,2.5-6.8 c-0.2-0.6-1.1-3.2,0.2-6.6 c0,0,2.1-0.7,6.8,2.5 c2-0.6,4.1-0.8,6.2-0.8 c2.1,0,4.2,0.3,6.2,0.8 c4.7-3.2,6.8-2.5,6.8-2.5 c1.4,3.5,0.5,6,0.2,6.6 c1.6,1.7,2.5,4,2.5,6.8 c0,9.7-5.9,11.9-11.5,12.5 c0.9,0.8,1.7,2.3,1.7,4.6 c0,3.3,0,6,0,6.8 c0,0.7,0.5,1.4,1.7,1.2 C67.8,70.5,75,61.1,75,50 C75,36.2,63.8,25,50,25z" />
</svg>