<svg xmlns="http://www.w3.org/2000/svg" viewBox="0 0 100 100" fill="none">
  <defs>
    <!-- Vibrant rainbow gradient for outer circle -->
    <linearGradient id="rainbowGradient" x1="0%" y1="0%" x2="100%" y2="100%">
      <stop offset="0%" style="stop-color:#ff6b6b;stop-opacity:1" />
      <stop offset="20%" style="stop-color:#f59e0b;stop-opacity:1" />
      <stop offset="40%" style="stop-color:#fbbf24;stop-opacity:1" />
      <stop offset="60%" style="stop-color:#34d399;stop-opacity:1" />
      <stop offset="80%" style="stop-color:#60a5fa;stop-opacity:1" />
      <stop offset="100%" style="stop-color:#a78bfa;stop-opacity:1" />
    </linearGradient>

    <!-- Shimmer gradient for inner circle -->
    <linearGradient id="shimmer" x1="0%" y1="0%" x2="100%" y2="100%">
      <stop offset="0%" style="stop-color:#ec4899;stop-opacity:1" />
      <stop offset="33%" style="stop-color:#8b5cf6;stop-opacity:1" />
      <stop offset="66%" style="stop-color:#3b82f6;stop-opacity:1" />
      <stop offset="100%" style="stop-color:#06b6d4;stop-opacity:1" />
    </linearGradient>

    <!-- Gradient for the R letter -->
    <linearGradient id="letterGradient" x1="0%" y1="0%" x2="100%" y2="100%">
      <stop offset="0%" style="stop-color:#ffffff;stop-opacity:1" />
      <stop offset="50%" style="stop-color:#f0f9ff;stop-opacity:1" />
      <stop offset="100%" style="stop-color:#dbeafe;stop-opacity:1" />
    </linearGradient>
  </defs>

  <!-- Outer circle with rainbow gradient -->
  <circle cx="50" cy="50" r="48" fill="url(#rainbowGradient)" />

  <!-- Inner circle with shimmer gradient -->
  <circle cx="50" cy="50" r="42" fill="url(#shimmer)" />

  <!-- Stylized letter "R" for Ropean -->
  <g fill="url(#letterGradient)" opacity="0.98">
    <!-- Vertical stem of R -->
    <rect x="32" y="28" width="8" height="44" rx="2" />

    <!-- Top curved part of R -->
    <path d="M 40 28 L 55 28 C 62 28 65 31 65 38 C 65 45 62 48 55 48 L 40 48 Z" />

    <!-- Diagonal leg of R -->
    <path d="M 48 48 L 58 72 L 50 72 L 42 50 Z" />

    <!-- Small circle accent for modern look -->
    <circle cx="58" cy="38" r="3" fill="white" opacity="0.6" />
  </g>

  <!-- Subtle dots pattern for tech feel -->
  <circle cx="50" cy="82" r="1.5" fill="white" opacity="0.5" />
  <circle cx="45" cy="84" r="1" fill="white" opacity="0.4" />
  <circle cx="55" cy="84" r="1" fill="white" opacity="0.4" />
</svg>